<svg xmlns="http://www.w3.org/2000/svg" width="92" height="32.022" viewBox="0 0 92 32.022">
  <g id="BLACK_WORLD_HISTORY" data-name="BLACK WORLD HISTORY" transform="translate(-92.4 -181.588)">
    <g id="Group_69" data-name="Group 69" transform="translate(124.252 181.588)">
      <g id="Group_40" data-name="Group 40" transform="translate(0 3.936)">
        <rect id="Rectangle_1091" data-name="Rectangle 1091" width="14.549" height="14.549" transform="translate(10.288 0) rotate(45)" fill="#fff"/>
      </g>
      <g id="Group_60" data-name="Group 60" transform="translate(5.212 4.838)">
        <path id="Path_211" data-name="Path 211" d="M249.983,218.308s-1.4-.408-.432,1.561a1.125,1.125,0,0,1,.286.709s.127.585.64.53a4.653,4.653,0,0,0,.688,1.726,12.723,12.723,0,0,0,2.748,7.442s2.7-5.164,2.779-7.542a2.993,2.993,0,0,0,.666-1.655s.339.32.68-.637c0,0,.408-1.043.845-2.146Z" transform="translate(-248.835 -214.352)" fill="#fff"/>
        <g id="Group_48" data-name="Group 48" transform="translate(0.411)">
          <path id="Path_212" data-name="Path 212" d="M283.13,225.3a.43.43,0,0,0,.611-.232l.155-.549.341-.683-1.017.162Z" transform="translate(-275.067 -218.59)" fill="#1e2c41" opacity="0.81"/>
          <path id="Path_213" data-name="Path 213" d="M254.313,222.979a3.359,3.359,0,0,0-.148.583,6.821,6.821,0,0,1-.127-.688.368.368,0,0,1,.029-.177.236.236,0,0,1,.26-.1.78.78,0,0,1,.248.053c-.043.05-.105.084-.15.138A1.044,1.044,0,0,0,254.313,222.979Z" transform="translate(-252.921 -217.643)" fill="#1e2c41"/>
          <path id="Path_214" data-name="Path 214" d="M257.594,201.855v0h-.845a2.7,2.7,0,0,0-2.7,2.781l.11,3.808a2.727,2.727,0,0,0,.184.9l.093.241a2.717,2.717,0,0,0,.984,1.246l1.428.986a1.3,1.3,0,0,0,1.478,0l1.421-.986a2.706,2.706,0,0,0,.981-1.249l.093-.241a2.725,2.725,0,0,0,.181-.9l.1-3.808a2.7,2.7,0,0,0-2.71-2.774Z" transform="translate(-252.927 -201.85)" fill="none" stroke="#1e2c41" stroke-miterlimit="10" stroke-width="0.253"/>
          <path id="Path_215" data-name="Path 215" d="M252.45,221.9s.384,1.325.523,2.068l-.057-2.144Z" transform="translate(-251.712 -217.052)" fill="#1e2c41"/>
          <g id="Group_42" data-name="Group 42" transform="translate(8.113 4.682)">
            <g id="Group_41" data-name="Group 41">
              <path id="Path_216" data-name="Path 216" d="M283.992,221.5a.5.5,0,0,1,.38-.007.256.256,0,0,1,.134.167.47.47,0,0,1,0,.208,2.607,2.607,0,0,1-.329.669c-.119.205-.117.458-.222.695a.579.579,0,0,1-.253.286.352.352,0,0,1-.365-.012.385.385,0,0,0,.339-.038.572.572,0,0,0,.21-.267c.086-.217.088-.475.2-.709a6.839,6.839,0,0,0,.308-.649.251.251,0,0,0-.062-.282A.59.59,0,0,0,283.992,221.5Z" transform="translate(-283.34 -221.461)" fill="#1e2c41"/>
            </g>
          </g>
          <path id="Path_217" data-name="Path 217" d="M283.713,221.9s-.384,1.325-.523,2.068l.057-2.144Z" transform="translate(-275.113 -217.052)" fill="#1e2c41"/>
          <g id="Group_44" data-name="Group 44" transform="translate(0.339 4.601)">
            <g id="Group_43" data-name="Group 43">
              <path id="Path_218" data-name="Path 218" d="M250.961,221.913a.577.577,0,0,1-.181-.427.381.381,0,0,1,.088-.224.516.516,0,0,1,.189-.141.54.54,0,0,0-.217.37.553.553,0,0,0,.031.215A1.218,1.218,0,0,0,250.961,221.913Z" transform="translate(-250.779 -221.12)" fill="#1e2c41"/>
            </g>
            <path id="Path_219" data-name="Path 219" d="M252.674,223.59a1.066,1.066,0,0,1-.007.389.854.854,0,0,0-.048.186.256.256,0,0,0,.076.191.877.877,0,0,1,.033-.272c.01-.029.021-.062.05-.072s.074.019.1.043c.021-.072-.033-.158-.064-.22S252.706,223.659,252.674,223.59Z" transform="translate(-252.18 -223)" fill="#1e2c41"/>
            <path id="Path_220" data-name="Path 220" d="M253.178,225.422a.656.656,0,0,0,.127.384c.01.012.021.024.036.019s.024-.048.019-.076a2.824,2.824,0,0,0-.091-.47C253.2,225.052,253.173,225.305,253.178,225.422Z" transform="translate(-252.605 -224.217)" fill="#1e2c41"/>
            <path id="Path_221" data-name="Path 221" d="M284.267,223.59a1.066,1.066,0,0,0,.007.389.856.856,0,0,1,.048.186.256.256,0,0,1-.076.191.879.879,0,0,0-.033-.272c-.01-.029-.021-.062-.05-.072s-.074.019-.1.043c-.021-.072.033-.158.064-.22S284.239,223.659,284.267,223.59Z" transform="translate(-276.114 -223)" fill="#1e2c41"/>
            <path id="Path_222" data-name="Path 222" d="M284.015,225.422a.656.656,0,0,1-.127.384c-.01.012-.022.024-.036.019s-.024-.048-.019-.076a2.825,2.825,0,0,1,.091-.47C284,225.052,284.022,225.305,284.015,225.422Z" transform="translate(-275.94 -224.217)" fill="#1e2c41"/>
          </g>
          <g id="Group_47" data-name="Group 47" transform="translate(0 4.675)">
            <g id="Group_46" data-name="Group 46" transform="translate(0.113 0.02)">
              <g id="Group_45" data-name="Group 45">
                <path id="Path_223" data-name="Path 223" d="M250.992,223.547a.369.369,0,0,1-.372.024.587.587,0,0,1-.267-.286c-.112-.244-.1-.492-.2-.707a3.625,3.625,0,0,1-.31-.673.311.311,0,0,1,.124-.353.534.534,0,0,1,.37-.007.571.571,0,0,0-.349.043.265.265,0,0,0-.076.3,3.723,3.723,0,0,0,.327.645,4.791,4.791,0,0,1,.224.7.546.546,0,0,0,.193.265A.376.376,0,0,0,250.992,223.547Z" transform="translate(-249.832 -221.514)" fill="#1e2c41"/>
              </g>
            </g>
            <path id="Path_224" data-name="Path 224" d="M249.637,221.43s-.5.019-.155.657a2.247,2.247,0,0,1,.358.711s.079.907.75.716c0,0-.485.026-.578-.368a2.152,2.152,0,0,0-.272-.848S249.226,221.714,249.637,221.43Z" transform="translate(-249.36 -221.43)" fill="#1e2c41"/>
          </g>
          <path id="Path_225" data-name="Path 225" d="M260.913,222.048a1.432,1.432,0,0,0-1.065-.349,3.3,3.3,0,0,0-1.724.451,1.155,1.155,0,0,0-.437.341.477.477,0,0,0-.06-.138.915.915,0,0,0-.695-.306,10.606,10.606,0,0,0-2.433-.215,1.042,1.042,0,0,0-.528.165.761.761,0,0,0-.272.487c-.021.134-.064.439.06.537s.351-.038.449-.127a1.637,1.637,0,0,1,.368-.3.747.747,0,0,1,.489-.017c.162.041.315.112.475.158a5.291,5.291,0,0,0,1.261.1,1.661,1.661,0,0,1,.377.043c.036.041.1.055.141.093a.525.525,0,0,1,.16.244.022.022,0,0,1,0,.012,2.486,2.486,0,0,1,.033.645c-.01.358-.143.74-.162,1.1a.489.489,0,0,1-.029.165c-.026.064-.081.129-.057.193.017.043.062.067.091.105a.2.2,0,0,1-.064.267,0,0,0,0,0,0,0,.211.211,0,0,1-.036.012,1.772,1.772,0,0,1-.27.064.219.219,0,0,1-.041,0c-.012,0-.014.007-.01.01-.1.012-.3-.053-.3.012,0,.038.275.079.413.053.057-.012.131-.024.162.026a.313.313,0,0,1,.021.067.115.115,0,0,0,.033.048h0a.728.728,0,0,0,.167.084.4.4,0,0,1,.186.2,2.239,2.239,0,0,1-.074.427c-.05.069-.107.134-.158.205a.348.348,0,0,0-.162.174.684.684,0,0,0,.067.017v0c0,.033.043.012.084,0a.258.258,0,0,1-.084.072l.169-.081a.811.811,0,0,0,.349-.172h0c.026-.014.053-.026.076-.041a1.483,1.483,0,0,0,.3-.16c.4-.217.745-.435,1.2-.721a3.657,3.657,0,0,0,1.151-1.552,3.918,3.918,0,0,0,.325-1.535C260.849,222.6,261.13,222.282,260.913,222.048Z" transform="translate(-252.645 -216.96)" fill="#1e2c41" opacity="0.81"/>
          <path id="Path_226" data-name="Path 226" d="M265.538,238.668a.029.029,0,0,1,.043.029.038.038,0,0,1-.031.029.1.1,0,0,1-.045,0c-.007,0-.017,0-.022-.01a.026.026,0,0,1,0-.036.067.067,0,0,1,.036-.014" transform="translate(-261.63 -229.875)" fill="#1e2c41" opacity="0.81"/>
          <path id="Path_227" data-name="Path 227" d="M263.78,241.64a1.624,1.624,0,0,0,1.361.571,2.268,2.268,0,0,0,1.292-.79,5.847,5.847,0,0,1-1.5.692A2.616,2.616,0,0,1,263.78,241.64Z" transform="translate(-260.337 -231.973)" fill="#1d2e42"/>
          <path id="Path_228" data-name="Path 228" d="M258.474,237.575s-.647-.368-1.11-.7a2.815,2.815,0,0,1-1.024-1.2,4.485,4.485,0,0,0,1.318,1.246A6.093,6.093,0,0,1,258.474,237.575Z" transform="translate(-254.673 -227.595)" fill="#1e2c41"/>
          <path id="Path_229" data-name="Path 229" d="M254.528,228.43a4.268,4.268,0,0,0,.79,2.185A3.371,3.371,0,0,1,254.528,228.43Z" transform="translate(-253.284 -222.084)" fill="#1e2c41"/>
          <path id="Path_230" data-name="Path 230" d="M273.35,238.31c-.212.112-1,.721-1.191.862-.041.029-.079.06-.117.091s-.575.377-.592.415c.122-.074.563-.339.587-.349A6.794,6.794,0,0,0,273.35,238.31Z" transform="translate(-266.176 -229.605)" fill="#1d2e42"/>
          <path id="Path_231" data-name="Path 231" d="M279.707,230.815a2.347,2.347,0,0,1-.917,1.23,4.324,4.324,0,0,0,.828-1.33c.05-.158.169-.466.21-.626a.491.491,0,0,1,.048-.129,1.358,1.358,0,0,1-.012.17c0,.057-.01.115-.017.17a1.978,1.978,0,0,1-.069.334C279.757,230.7,279.731,230.757,279.707,230.815Z" transform="translate(-271.763 -223.249)" fill="#1e2c41"/>
          <path id="Path_232" data-name="Path 232" d="M250.32,220.34" transform="translate(-250.091 -215.926)" fill="#fff"/>
        </g>
        <g id="Group_59" data-name="Group 59" transform="translate(0 8.437)">
          <g id="Group_49" data-name="Group 49">
            <path id="Path_233" data-name="Path 233" d="M271.7,237.19,274,240.32a6.3,6.3,0,0,1-1.733-.583l.141.478a25.261,25.261,0,0,1-3.483,4.462A41.458,41.458,0,0,0,271.7,237.19Z" transform="translate(-263.839 -237.19)" fill="#1e2c41"/>
            <path id="Path_234" data-name="Path 234" d="M249.934,237.19l-2.294,3.13a6.3,6.3,0,0,0,1.733-.583l-.141.478a25.26,25.26,0,0,0,3.483,4.462A41.267,41.267,0,0,1,249.934,237.19Z" transform="translate(-247.64 -237.19)" fill="#1e2c41"/>
          </g>
          <g id="Group_52" data-name="Group 52" transform="translate(4.902 2.772)">
            <g id="Group_50" data-name="Group 50">
              <path id="Path_235" data-name="Path 235" d="M268.2,248.8c.026.709.019,1.416.031,2.125-.01.709,0,1.416-.031,2.125-.026-.709-.019-1.416-.031-2.125C268.182,250.216,268.175,249.507,268.2,248.8Z" transform="translate(-268.17 -248.8)" fill="#1e2c41"/>
            </g>
            <g id="Group_51" data-name="Group 51" transform="translate(0.351)">
              <path id="Path_236" data-name="Path 236" d="M269.671,248.8c.026.709.019,1.416.031,2.125-.01.709,0,1.416-.031,2.125-.026-.709-.019-1.416-.031-2.125C269.652,250.216,269.645,249.507,269.671,248.8Z" transform="translate(-269.64 -248.8)" fill="#1e2c41"/>
            </g>
          </g>
          <g id="Group_56" data-name="Group 56" transform="translate(3.396 1.536)">
            <g id="Group_53" data-name="Group 53">
              <path id="Path_237" data-name="Path 237" d="M270.3,245.556a.675.675,0,0,0,.11.055.253.253,0,0,0,.2-.007.366.366,0,0,0,.143-.287,8.862,8.862,0,0,0,.11-1.256.09.09,0,0,0-.117-.086l-1.581.492c0,.074-.033.337.036.38.012.007.045-.007.06,0a.32.32,0,0,1,.086.053c.165.115.332.227.494.344S270.14,245.459,270.3,245.556Z" transform="translate(-267.409 -243.888)" fill="#1e2c41"/>
              <path id="Path_238" data-name="Path 238" d="M262.289,245.231a.467.467,0,0,1-.115.041.249.249,0,0,1-.193-.029.362.362,0,0,1-.11-.3,8.431,8.431,0,0,1,.029-1.2.13.13,0,0,1,.181-.105l1.464.647c0,.074,0,.337-.079.372-.014.007-.043-.012-.06-.01a.35.35,0,0,0-.091.043l-.53.284C262.623,245.059,262.458,245.15,262.289,245.231Z" transform="translate(-261.862 -243.622)" fill="#1e2c41"/>
              <path id="Path_239" data-name="Path 239" d="M267.821,246.123a.12.12,0,0,0,.012.064.115.115,0,0,0,.1.041,1.347,1.347,0,0,0,.4-.021.063.063,0,0,0,.057-.076.981.981,0,0,1,0-.358.169.169,0,0,0-.057-.141.087.087,0,0,0-.041-.017,1.64,1.64,0,0,0-.37-.033c-.038,0-.1-.017-.105.021a.463.463,0,0,0,0,.11c0,.072.012.124.014.2S267.819,246.045,267.821,246.123Z" transform="translate(-266.389 -245.112)" fill="#fff"/>
              <path id="Path_240" data-name="Path 240" d="M268,246.261a.1.1,0,0,0,.01.053.1.1,0,0,0,.076.033,1.22,1.22,0,0,0,.349-.021.061.061,0,0,0,.029-.012.073.073,0,0,0,.019-.05,2.182,2.182,0,0,0,0-.306.154.154,0,0,0-.048-.124.171.171,0,0,0-.079-.026,1.734,1.734,0,0,0-.334-.014c-.031,0-.031,0-.031.033s0,.048,0,.072c0,.057,0,.115,0,.172S268,246.2,268,246.261Z" transform="translate(-266.527 -245.273)" fill="#1e2c41"/>
            </g>
            <g id="Group_54" data-name="Group 54" transform="translate(2.079 0.618)">
              <path id="Path_241" data-name="Path 241" d="M270.6,246.327s.263-.069.408-.117A.854.854,0,0,1,270.6,246.327Z" transform="translate(-270.593 -246.21)" fill="#fff"/>
              <path id="Path_242" data-name="Path 242" d="M270.992,246.907c.129-.012.255-.033.38-.057a.233.233,0,0,1-.124.069,1.209,1.209,0,0,1-.162.021,2.163,2.163,0,0,1-.248.007.632.632,0,0,1-.236-.048c.01-.021.05,0,.074,0s.072.01.107.012A2.035,2.035,0,0,0,270.992,246.907Z" transform="translate(-270.593 -246.697)" fill="#fff"/>
              <path id="Path_243" data-name="Path 243" d="M271.253,247.643a.675.675,0,0,0-.322-.2c-.062-.021-.127-.041-.189-.062-.033-.01-.064-.021-.1-.033s-.055-.031-.076-.026a2.408,2.408,0,0,0,.332.172A3.307,3.307,0,0,0,271.253,247.643Z" transform="translate(-270.57 -247.053)" fill="#fff"/>
            </g>
            <g id="Group_55" data-name="Group 55" transform="translate(0.553 0.494)">
              <path id="Path_244" data-name="Path 244" d="M264.295,247.736a.406.406,0,0,0,.138-.033,4.331,4.331,0,0,0,.408-.2l-.251.11a1.293,1.293,0,0,1-.2.074.4.4,0,0,1-.105.01.216.216,0,0,1-.055-.007.352.352,0,0,0-.048-.012c0,.019.031.038.048.045A.127.127,0,0,0,264.295,247.736Z" transform="translate(-264.18 -247.068)" fill="#fff"/>
              <path id="Path_245" data-name="Path 245" d="M264.8,247.3a1.754,1.754,0,0,1-.193-.014.037.037,0,0,0,.014.019.091.091,0,0,0,.024.007.785.785,0,0,0,.279,0c.017,0,.067-.017.064-.041a.145.145,0,0,0-.043.012.339.339,0,0,1-.048.01C264.868,247.294,264.837,247.3,264.8,247.3Z" transform="translate(-264.507 -246.893)" fill="#fff"/>
              <path id="Path_246" data-name="Path 246" d="M264.536,245.828c-.1-.045-.2-.091-.306-.138a.07.07,0,0,0,.026.053.191.191,0,0,0,.052.031,2.078,2.078,0,0,0,.332.129.612.612,0,0,0,.167.064c-.045-.024-.086-.053-.131-.074A1.5,1.5,0,0,0,264.536,245.828Z" transform="translate(-264.218 -245.69)" fill="#fff"/>
            </g>
          </g>
          <g id="Group_57" data-name="Group 57" transform="translate(2.247 0.487)">
            <path id="Path_247" data-name="Path 247" d="M257.05,239.23c.158.594.337,1.184.525,1.769s.4,1.163.628,1.736.461,1.141.719,1.7.547,1.1.843,1.643a17.5,17.5,0,0,1-.879-1.626c-.265-.556-.516-1.12-.74-1.7A26.787,26.787,0,0,1,257.05,239.23Z" transform="translate(-257.05 -239.23)" fill="#fff"/>
          </g>
          <g id="Group_58" data-name="Group 58" transform="translate(5.19 0.504)">
            <path id="Path_248" data-name="Path 248" d="M272.169,239.3a25.746,25.746,0,0,1-1.127,3.524c-.229.573-.485,1.136-.759,1.688a17.536,17.536,0,0,1-.9,1.616c.3-.537.6-1.077.867-1.633s.516-1.12.738-1.693.446-1.148.645-1.733S272.006,239.9,272.169,239.3Z" transform="translate(-269.38 -239.3)" fill="#fff"/>
          </g>
        </g>
      </g>
      <g id="Group_68" data-name="Group 68" transform="translate(1.528)">
        <path id="Path_249" data-name="Path 249" d="M249.586,198.934c0,1.826-3.364,3.622-8.125,3.622s-9.252-2.578-9.252-4.4,3.832-2.951,8.6-2.951S249.586,197.108,249.586,198.934Z" transform="translate(-232.21 -191.95)" fill="#1e2c41"/>
        <g id="Group_64" data-name="Group 64" transform="translate(0.739 3.835)">
          <g id="Group_61" data-name="Group 61">
            <path id="Path_250" data-name="Path 250" d="M239.513,197.65c-.439.062-.876.146-1.308.241a10.707,10.707,0,0,0-1.277.37,3.973,3.973,0,0,0-1.17.614,1.241,1.241,0,0,0-.394.52.868.868,0,0,0,.026.647.893.893,0,0,1-.041-.652,1.26,1.26,0,0,1,.4-.53,4.05,4.05,0,0,1,1.172-.626A11.945,11.945,0,0,1,239.513,197.65Z" transform="translate(-235.305 -197.65)" fill="#fff"/>
          </g>
          <g id="Group_62" data-name="Group 62" transform="translate(0.619 0.377)">
            <path id="Path_251" data-name="Path 251" d="M241.372,199.23c-.339.045-.676.105-1.01.172a9.435,9.435,0,0,0-.991.258,4.121,4.121,0,0,0-.936.4,1.413,1.413,0,0,0-.382.332.667.667,0,0,0-.15.473.663.663,0,0,1,.138-.482,1.45,1.45,0,0,1,.384-.339,4.161,4.161,0,0,1,.936-.415A10.523,10.523,0,0,1,241.372,199.23Z" transform="translate(-237.898 -199.23)" fill="#fff"/>
          </g>
          <g id="Group_63" data-name="Group 63" transform="translate(1.381 0.783)">
            <path id="Path_252" data-name="Path 252" d="M241.09,201.837a1.483,1.483,0,0,1,.6-.425,5.483,5.483,0,0,1,.707-.244c.241-.057.485-.107.731-.148s.492-.067.74-.091c-.246.036-.492.069-.735.112s-.487.1-.728.155a5.172,5.172,0,0,0-.7.232,2.525,2.525,0,0,0-.329.17A1.016,1.016,0,0,0,241.09,201.837Z" transform="translate(-241.09 -200.93)" fill="#fff"/>
          </g>
        </g>
        <path id="Path_253" data-name="Path 253" d="M286.868,205.3s.838-.676-.628-1.3l.236,1.029Z" transform="translate(-273.34 -198.649)" fill="#fff"/>
        <g id="Group_65" data-name="Group 65" transform="translate(0.578 7.385)">
          <path id="Path_254" data-name="Path 254" d="M250.891,213.243a4.839,4.839,0,0,1-1.807,1.2,12.781,12.781,0,0,1-2.084.652,16.7,16.7,0,0,1-4.343.413,16.926,16.926,0,0,1-4.286-.819,12.84,12.84,0,0,1-2.015-.845,5.874,5.874,0,0,1-1.726-1.32,5.9,5.9,0,0,0,1.74,1.294,13.331,13.331,0,0,0,2.013.833,17.053,17.053,0,0,0,4.276.8,16.725,16.725,0,0,0,4.331-.392,13.193,13.193,0,0,0,2.082-.64A4.859,4.859,0,0,0,250.891,213.243Z" transform="translate(-234.63 -212.52)" fill="#fff"/>
        </g>
        <path id="Path_255" data-name="Path 255" d="M248.9,203.761s-2.846.167-.47,1.819l.8-1.9Z" transform="translate(-243.839 -198.406)" fill="#fff"/>
        <path id="Path_256" data-name="Path 256" d="M249.217,205.59a.506.506,0,0,0-.16.886Z" transform="translate(-244.876 -199.86)" fill="#192838"/>
        <path id="Path_257" data-name="Path 257" d="M287.017,206.521c.614-.554-.177-.941-.177-.941Z" transform="translate(-273.797 -199.852)" fill="#192838"/>
        <path id="Path_258" data-name="Path 258" d="M258.853,188.1c-.048.105-.275.079-.353.181a8.35,8.35,0,0,1-2.082,1.237,7.736,7.736,0,0,1-2.189.306,7.607,7.607,0,0,1-2.526-.415,5.982,5.982,0,0,1-2.022-1.22l.06-.284c0-.021.064-.513.215-1.187.358-1.6,1.215-4.357,2.961-5.007a2.55,2.55,0,0,1,1.571,0,1.269,1.269,0,0,1,.153.072,1.468,1.468,0,0,1,.353.267,1.975,1.975,0,0,0,1.28.709,1.724,1.724,0,0,1,.683.258.909.909,0,0,1,.1.072,3.506,3.506,0,0,1,1,2.2l.3,1.258Z" transform="translate(-245.509 -181.588)" fill="#1d2e42"/>
        <g id="Group_66" data-name="Group 66" transform="translate(4.159 6.377)">
          <path id="Path_259" data-name="Path 259" d="M254.193,210.1a9.875,9.875,0,0,1-2.781-.384,4.681,4.681,0,0,1-1.781-.953l.107-.141a4.393,4.393,0,0,0,1.736.891,9.627,9.627,0,0,0,2.722.375,9.915,9.915,0,0,0,2.359-.277,4.612,4.612,0,0,0,2.216-1.1,2.386,2.386,0,0,0,.174-.212l.177.136a2.246,2.246,0,0,1-.2.217,4.759,4.759,0,0,1-2.321,1.16A10,10,0,0,1,254.193,210.1Z" transform="translate(-249.63 -208.3)" fill="#fff"/>
        </g>
        <g id="Group_67" data-name="Group 67" transform="translate(6.891 0.948)">
          <path id="Path_260" data-name="Path 260" d="M261.2,185.56a1.748,1.748,0,0,0-.062.726,1.179,1.179,0,0,0,.308.635,2.357,2.357,0,0,0,1.285.614,3.193,3.193,0,0,0,.726.019c.246-.012.489-.041.733-.072a8.552,8.552,0,0,0,1.437-.339,6.349,6.349,0,0,1-1.421.432,5.921,5.921,0,0,1-.74.091,3.31,3.31,0,0,1-.752-.012,3.038,3.038,0,0,1-.719-.229,1.816,1.816,0,0,1-.614-.442,1.243,1.243,0,0,1-.3-.69A1.6,1.6,0,0,1,261.2,185.56Z" transform="translate(-261.071 -185.56)" fill="#fff"/>
        </g>
        <path id="Path_261" data-name="Path 261" d="M254.135,196.256a.681.681,0,0,0,.053.277.28.28,0,0,0,.213.17.294.294,0,0,0,.258-.131.889.889,0,0,0,.117-.277,9.021,9.021,0,0,0,.341-1.5c.062-.573-.389-.883-.628-.255A4.433,4.433,0,0,0,254.135,196.256Z" transform="translate(-248.899 -191.18)" fill="#fff"/>
        <path id="Path_262" data-name="Path 262" d="M271.254,183.454a.863.863,0,0,1-.377.186,6.289,6.289,0,0,1-.941.181,2.248,2.248,0,0,1-.738-.012.965.965,0,0,1-.606-.392.916.916,0,0,1-.1-.7,1.145,1.145,0,0,1,.294-.568,1.271,1.271,0,0,1,.153.072,1.469,1.469,0,0,1,.353.267,1.975,1.975,0,0,0,1.28.709A1.649,1.649,0,0,1,271.254,183.454Z" transform="translate(-259.809 -182.016)" fill="#192838"/>
      </g>
    </g>
    <g id="Group_70" data-name="Group 70" transform="translate(92.517 183.921)">
      <path id="Path_263" data-name="Path 263" d="M101.289,212.388h-8.4V193.2h7.468a10.809,10.809,0,0,1,3.364.466,4.814,4.814,0,0,1,2.127,1.263,4.97,4.97,0,0,1,1.289,3.35,3.929,3.929,0,0,1-1.454,3.35,5.477,5.477,0,0,1-.685.48c-.129.064-.356.17-.685.315a5.03,5.03,0,0,1,2.841,1.607,4.476,4.476,0,0,1,1.058,3.035,5.159,5.159,0,0,1-1.373,3.541Q105.239,212.388,101.289,212.388Zm-4.116-11.419H99.2a6.909,6.909,0,0,0,2.65-.384,1.622,1.622,0,0,0,.864-1.662,1.716,1.716,0,0,0-.8-1.688,6.305,6.305,0,0,0-2.691-.413H97.176v4.147Zm0,7.8h2.937a6.481,6.481,0,0,0,2.76-.454,1.789,1.789,0,0,0,.919-1.783,1.716,1.716,0,0,0-.974-1.757,8.341,8.341,0,0,0-3.116-.425H97.173Z" transform="translate(-92.89 -192.761)" fill="#ddd"/>
      <path id="Path_264" data-name="Path 264" d="M172.11,212.388V193.2h4.283v15.373h8.182v3.815Z" transform="translate(-153.196 -192.761)" fill="#ddd"/>
      <path id="Path_265" data-name="Path 265" d="M328.215,207.2a6.327,6.327,0,0,0,5.162-2.5l2.746,2.827a10.356,10.356,0,0,1-15,.879,10.141,10.141,0,0,1,.055-14.194,9.849,9.849,0,0,1,7.151-2.855,10.143,10.143,0,0,1,7.907,3.6l-2.662,3.02a6.242,6.242,0,0,0-5.052-2.526,5.885,5.885,0,0,0-4.133,1.578,5.5,5.5,0,0,0-1.717,4.255,5.807,5.807,0,0,0,1.619,4.3A5.34,5.34,0,0,0,328.215,207.2Z" transform="translate(-264.445 -191.36)" fill="#ddd"/>
      <path id="Path_266" data-name="Path 266" d="M407.25,193.2h4.283v7.879l7.248-7.879h5.3l-7.63,8.483q.988,1.372,3.651,5.119t3.98,5.587h-5l-5.627-7.578-1.922,2.142v5.436H407.25Z" transform="translate(-332.196 -192.761)" fill="#ddd"/>
    </g>
    <g id="Group_71" data-name="Group 71" transform="translate(121.437 208.386)">
      <path id="Path_267" data-name="Path 267" d="M216.207,297.967l1.125-3.627h.764l1.125,3.627,1.268-3.627h.914l-1.76,5.038H218.8l-1.06-3.452h-.057l-1.06,3.452h-.843l-1.76-5.038h.914Z" transform="translate(-214.02 -294.218)" fill="#ddd"/>
      <path id="Path_268" data-name="Path 268" d="M251.211,298.3a2.766,2.766,0,0,1-3.777,0,2.646,2.646,0,0,1,0-3.72,2.76,2.76,0,0,1,3.777,0,2.646,2.646,0,0,1,0,3.72Zm-.623-3.154a1.77,1.77,0,0,0-2.531,0,1.881,1.881,0,0,0,0,2.588,1.77,1.77,0,0,0,2.531,0,1.881,1.881,0,0,0,0-2.588Z" transform="translate(-238.875 -293.83)" fill="#ddd"/>
      <path id="Path_269" data-name="Path 269" d="M277.421,295.985a1.462,1.462,0,0,1-1.089,1.571l1.32,1.831h-1.082l-1.2-1.693H274.25v1.693h-.85V294.35h1.874a2.7,2.7,0,0,1,1.65.389A1.493,1.493,0,0,1,277.421,295.985Zm-1.132.714a.9.9,0,0,0,.26-.716.767.767,0,0,0-.267-.678,1.785,1.785,0,0,0-.953-.184h-1.082v1.8h1.06A1.566,1.566,0,0,0,276.289,296.7Z" transform="translate(-259.223 -294.226)" fill="#ddd"/>
      <path id="Path_270" data-name="Path 270" d="M295.37,299.388V294.35h.85v4.231h2.3v.807Z" transform="translate(-275.948 -294.226)" fill="#ddd"/>
      <path id="Path_271" data-name="Path 271" d="M316.273,295.009a2.35,2.35,0,0,1,.728,1.834,2.472,2.472,0,0,1-.707,1.86,3,3,0,0,1-2.163.685H312.46V294.35h1.731A3,3,0,0,1,316.273,295.009Zm-.129,1.855q0-1.73-1.982-1.731h-.85v3.452h.945a2.028,2.028,0,0,0,1.4-.437A1.631,1.631,0,0,0,316.144,296.864Z" transform="translate(-288.957 -294.226)" fill="#ddd"/>
      <path id="Path_272" data-name="Path 272" d="M344.34,299.388V294.35h.85v2.185h2.5V294.35h.85v5.038h-.85v-2.06h-2.5v2.06Z" transform="translate(-313.226 -294.226)" fill="#ddd"/>
      <path id="Path_273" data-name="Path 273" d="M367.8,294.35h.85v5.038h-.85Z" transform="translate(-331.085 -294.226)" fill="#ddd"/>
      <path id="Path_274" data-name="Path 274" d="M377.434,294.618a1.117,1.117,0,0,0-.609.15.508.508,0,0,0-.239.458.527.527,0,0,0,.239.468,3.622,3.622,0,0,0,1.012.349,2.8,2.8,0,0,1,1.167.525,1.246,1.246,0,0,1,.394,1,1.318,1.318,0,0,1-.5,1.07,1.991,1.991,0,0,1-1.3.411,3.074,3.074,0,0,1-2.1-.814l.532-.642a2.4,2.4,0,0,0,1.585.664,1.083,1.083,0,0,0,.652-.177.554.554,0,0,0,.241-.468.525.525,0,0,0-.227-.454,2.387,2.387,0,0,0-.783-.3,6.5,6.5,0,0,1-.843-.246,1.876,1.876,0,0,1-.511-.291,1.218,1.218,0,0,1-.446-1.039,1.26,1.26,0,0,1,.509-1.077,2.055,2.055,0,0,1,1.258-.377,3.014,3.014,0,0,1,.957.158,2.5,2.5,0,0,1,.821.446l-.454.642a1.713,1.713,0,0,0-.606-.332A2.335,2.335,0,0,0,377.434,294.618Z" transform="translate(-336.947 -293.83)" fill="#ddd"/>
      <path id="Path_275" data-name="Path 275" d="M396.628,295.128v4.259h-.85v-4.259H394.25v-.778h3.906v.778Z" transform="translate(-351.22 -294.226)" fill="#ddd"/>
      <path id="Path_276" data-name="Path 276" d="M417.081,298.3a2.766,2.766,0,0,1-3.777,0,2.646,2.646,0,0,1,0-3.72,2.76,2.76,0,0,1,3.777,0,2.646,2.646,0,0,1,0,3.72Zm-.623-3.154a1.77,1.77,0,0,0-2.531,0,1.881,1.881,0,0,0,0,2.588,1.77,1.77,0,0,0,2.531,0,1.881,1.881,0,0,0,0-2.588Z" transform="translate(-365.143 -293.83)" fill="#ddd"/>
      <path id="Path_277" data-name="Path 277" d="M443.283,295.985a1.462,1.462,0,0,1-1.089,1.571l1.318,1.831h-1.082l-1.2-1.693H440.11v1.693h-.85V294.35h1.874a2.7,2.7,0,0,1,1.65.389A1.494,1.494,0,0,1,443.283,295.985Zm-1.132.714a.9.9,0,0,0,.26-.716.767.767,0,0,0-.267-.678,1.785,1.785,0,0,0-.953-.184H440.11v1.8h1.06A1.571,1.571,0,0,0,442.151,296.7Z" transform="translate(-385.484 -294.226)" fill="#ddd"/>
      <path id="Path_278" data-name="Path 278" d="M460.418,299.388h-.864V297.4l-1.874-3.049h.929l1.378,2.292,1.378-2.292h.929l-1.874,3.049Z" transform="translate(-399.506 -294.226)" fill="#ddd"/>
    </g>
    <g id="Group_74" data-name="Group 74" transform="translate(92.4 207.555)">
      <g id="Group_73" data-name="Group 73">
        <g id="Group_72" data-name="Group 72">
          <path id="Path_279" data-name="Path 279" d="M107.91,297.39v1.683l1.44.855.241-.408-1.177-.7v-1.43Z" transform="translate(-104.207 -295.709)" fill="#ddd"/>
          <path id="Path_280" data-name="Path 280" d="M96.437,290.35a3.027,3.027,0,0,0-3.027,3.027H92.4l1.311,1.311.024.048,1.358-1.358h-1.01a2.364,2.364,0,1,1,.692,1.664l-.475.475a3.027,3.027,0,1,0,2.137-5.167Z" transform="translate(-92.4 -290.35)" fill="#ddd"/>
        </g>
      </g>
    </g>
    <g id="Group_77" data-name="Group 77" transform="translate(101.473 207.555)">
      <g id="Group_76" data-name="Group 76" transform="translate(0)">
        <g id="Group_75" data-name="Group 75">
          <path id="Path_281" data-name="Path 281" d="M145.91,297.39v1.683l1.44.855.241-.408-1.177-.7v-1.43Z" transform="translate(-142.207 -295.709)" fill="#ddd"/>
          <path id="Path_282" data-name="Path 282" d="M134.437,290.35a3.027,3.027,0,0,0-3.027,3.027H130.4l1.311,1.311.024.048,1.359-1.358h-1.01a2.364,2.364,0,1,1,.692,1.664l-.475.475a3.027,3.027,0,1,0,2.137-5.167Z" transform="translate(-130.4 -290.35)" fill="#ddd"/>
        </g>
      </g>
    </g>
    <g id="Group_80" data-name="Group 80" transform="translate(110.545 207.555)">
      <g id="Group_79" data-name="Group 79" transform="translate(0)">
        <g id="Group_78" data-name="Group 78">
          <path id="Path_283" data-name="Path 283" d="M183.91,297.39v1.683l1.44.855.241-.408-1.177-.7v-1.43Z" transform="translate(-180.207 -295.709)" fill="#ddd"/>
          <path id="Path_284" data-name="Path 284" d="M172.437,290.35a3.027,3.027,0,0,0-3.027,3.027H168.4l1.311,1.311.024.048,1.358-1.358h-1.01a2.364,2.364,0,1,1,.692,1.664l-.475.475a3.027,3.027,0,1,0,2.137-5.167Z" transform="translate(-168.4 -290.35)" fill="#ddd"/>
        </g>
      </g>
    </g>
  </g>
</svg>
