<svg xmlns="http://www.w3.org/2000/svg" width="21.514" height="19" viewBox="0 0 21.514 19">
  <path id="Icon_awesome-comment" data-name="Icon awesome-comment" d="M10,2.25c-5.523,0-10,3.637-10,8.125A7.212,7.212,0,0,0,2.227,15.48,9.938,9.938,0,0,1,.086,19.223a.311.311,0,0,0-.059.34.306.306,0,0,0,.285.188A8.933,8.933,0,0,0,5.8,17.742,11.913,11.913,0,0,0,10,18.5c5.523,0,10-3.637,10-8.125S15.523,2.25,10,2.25Z" transform="translate(0.764 -1.5)" fill="none" stroke="rgba(0,0,0,0.6)" stroke-width="1.5"/>
</svg>
